<svg xmlns="http://www.w3.org/2000/svg" viewBox="0 0 500 500"><g id="freepik--background-complete--inject-1"><rect y="382.4" width="500" height="0.25" style="fill:#ebebeb"></rect><rect x="416.78" y="398.49" width="33.12" height="0.25" style="fill:#ebebeb"></rect><rect x="322.53" y="401.21" width="8.69" height="0.25" style="fill:#ebebeb"></rect><rect x="396.59" y="389.21" width="19.19" height="0.25" style="fill:#ebebeb"></rect><rect x="52.46" y="390.89" width="43.19" height="0.25" style="fill:#ebebeb"></rect><rect x="104.56" y="390.89" width="6.33" height="0.25" style="fill:#ebebeb"></rect><rect x="131.47" y="395.11" width="93.68" height="0.25" style="fill:#ebebeb"></rect><path d="M237,337.8H43.91a5.71,5.71,0,0,1-5.7-5.71V60.66A5.71,5.71,0,0,1,43.91,55H237a5.71,5.71,0,0,1,5.71,5.71V332.09A5.71,5.71,0,0,1,237,337.8ZM43.91,55.2a5.46,5.46,0,0,0-5.45,5.46V332.09a5.46,5.46,0,0,0,5.45,5.46H237a5.47,5.47,0,0,0,5.46-5.46V60.66A5.47,5.47,0,0,0,237,55.2Z" style="fill:#ebebeb"></path><path d="M453.31,337.8H260.21a5.72,5.72,0,0,1-5.71-5.71V60.66A5.72,5.72,0,0,1,260.21,55h193.1A5.71,5.71,0,0,1,459,60.66V332.09A5.71,5.71,0,0,1,453.31,337.8ZM260.21,55.2a5.47,5.47,0,0,0-5.46,5.46V332.09a5.47,5.47,0,0,0,5.46,5.46h193.1a5.47,5.47,0,0,0,5.46-5.46V60.66a5.47,5.47,0,0,0-5.46-5.46Z" style="fill:#ebebeb"></path><path d="M249.9,382.41c.28-2.26.15-5.56-2.65-6.49-4.39-1.44-7-4.84-6.85-8.69s-4.47-7.58-7.93-4-3-2.77-7.62-4.32-8.54,2.21-7.27,5.65-3.29,5.57-8.75,2.65-11.46,2.4-10.31,6.55.21,4.62-3.24,3.24c-2.93-1.18-7.79,1.47-7.9,5.39Z" style="fill:#e6e6e6"></path><path d="M74.7,134.27h90.69c11.62,0,14.42-16.26,3.45-20.08l-.43-.14c12.14-10.12-14.49-31.44-43.42-1.92,2.26-9.84-23.46-6.28-31.32,7.15C90.87,110.46,66.35,125.78,74.7,134.27Z" style="fill:#f0f0f0"></path><path d="M295.71,109.15h54.38s12.75-4.8,11.1-17.52-20.9-2.12-20.9-2.12,5.83-17.75-12.81-12.71S307,99.43,307,99.43,282.53,95.15,295.71,109.15Z" style="fill:#f0f0f0"></path><path d="M382.51,150.21h35.9s8.42-3.17,7.33-11.57-13.8-1.4-13.8-1.4,3.85-11.71-8.46-8.39A18.23,18.23,0,0,0,390,143.79S373.81,141,382.51,150.21Z" style="fill:#f0f0f0"></path><path d="M226.1,269.1c4.22,17.16-38.44,9.69-48.87,2s-18.51,2.68-35-17.43,18.07-13.44,16.91-22.59,37,6.57,50.33,6.72C251.63,238.2,221.88,251.94,226.1,269.1Z" style="fill:#e6e6e6"></path><path d="M93.52,246.42C90,269.1,133.08,264.2,143.34,255s19,5.86,34.78-19.31-19-20.37-18.27-32.59-37.34,4.39-50.92,3C66.07,201.62,97,223.75,93.52,246.42Z" style="fill:#e6e6e6"></path><polygon points="167.59 251.22 168.44 283.55 169.69 318.32 186.19 382.54 158.98 382.54 155.99 336.94 151.56 316.73 152.9 282.61 150.99 239.92 148.37 214.5 161.91 214.5 167.59 251.22" style="fill:#f0f0f0"></polygon><polygon points="159.53 256.76 170.25 236.75 178.68 217.45 173.22 239.34 163.14 262.71 159.53 256.76" style="fill:#f0f0f0"></polygon><path d="M168.8,249c9,20.81,40.63-2,44-14.27s18-3.23,17.64-31.5-25.6-9.07-31.31-19.79S171.77,203.33,160.26,208C124,222.74,159.83,228.17,168.8,249Z" style="fill:#e6e6e6"></path><path d="M176.46,185.82c16.82,13.57-18.24,34.67-31.63,34.21s-10.43,14.8-38,6.52,1.37-24.77-6.87-32.73,30.5-18.22,39.69-26.9C168.7,139.51,159.63,172.25,176.46,185.82Z" style="fill:#e6e6e6"></path><polygon points="155.33 292.17 134.1 263.56 121.58 241.14 119.3 246.21 151.56 316.73 155.33 292.17" style="fill:#f0f0f0"></polygon><path d="M365.55,185.44c-9.41,8.24-48.61,15.25-40.47,24.4s-21.26,23.66,6.33,35,24.89-5,38.34-3.17,49.22-17,32.49-32.85S395.33,159.45,365.55,185.44Z" style="fill:#e6e6e6"></path><path d="M280.8,172.43c13.57,5.35,54.52-.07,52.05,11.83s33.54,17.25,14,37.61-26.29,2.93-38,9-56-1.52-49.33-23S238,155.55,280.8,172.43Z" style="fill:#e6e6e6"></path><polygon points="338.81 177.79 355.94 178.93 360.04 211.49 370.06 266.35 371.83 301.03 377.3 328.32 394.32 382.54 359.83 382.54 352.72 297.32 350.69 266.26 342.34 224.65 338.81 177.79" style="fill:#f0f0f0"></polygon><polygon points="351.33 239.85 331.75 208.86 318.48 180.17 334.77 205.77 354.15 232.46 351.33 239.85" style="fill:#f0f0f0"></polygon><path d="M379.13,163.48c9.1,3.9,36.39-.32,34.81,8.51s22.49,12.65,9.56,27.86-17.53,2.31-25.28,6.9-37.4-.85-33.07-16.81S350.41,151.15,379.13,163.48Z" style="fill:#e6e6e6"></path><path d="M347.18,137.59c-14.66,4.35-65.3-7.18-58.82,6.74s-35,15.33-5.52,41.15,32.36,6.77,48.19,15.29,66.66,5.57,52.23-19.88S393.46,123.89,347.18,137.59Z" style="fill:#e6e6e6"></path><polygon points="367.08 251.17 388.15 227.12 395.6 208.01 383.18 223.5 361.53 243.23 367.08 251.17" style="fill:#f0f0f0"></polygon><path d="M358.9,383.24c.24-2.86-.15-6.56-3.49-7.66-5.65-1.87-9-6.24-8.81-11.19s-5.76-9.77-10.23-5.13-3.86-3.57-9.81-5.56-11,2.84-9.37,7.26-4.24,7.19-11.27,3.43-14.76,3.08-13.27,8.43.27,5.95-4.18,4.17c-3.6-1.45-9.48,1.58-10.13,6.25Z" style="fill:#ebebeb"></path><path d="M104.71,382.41H207.42c1.44-4.82-2.29-10.6-6.36-11.41-5-1-10-9.8-10.26-15.4s-9.24-22.83-23.24-12.19S157.81,345,147.69,342s-16.52,5.61-12.08,12.06c0,0-10.17-2.55-14.36,6.95s0,15.4,0,15.4S108.39,376,104.71,382.41Z" style="fill:#ebebeb"></path></g><g id="freepik--Shadow--inject-1"><ellipse id="freepik--path--inject-1" cx="250" cy="416.24" rx="193.89" ry="11.32" style="fill:#f5f5f5"></ellipse></g><g id="freepik--Floor--inject-1"><path d="M273.57,382.66s9-8,6.33-9.3-6,6-6.33,4.91,1.77-11.21-3.25-10.51,0,10.51,0,10.51-3.72-4-5-3.39,4,7.78,4,7.78Z" style="fill:#407BFF"></path><path d="M145.29,384.33s-2-6.8,2.08-8.16,6.54-4.53,6.41-8.13,4.18-7.1,7.43-3.73,2.81-2.59,7.13-4,8,2.06,6.81,5.28,3.08,5.22,8.19,2.49,10.73,2.24,9.65,6.13-.2,4.32,3,3,9,2.38,7,7.14S145.29,384.33,145.29,384.33Z" style="fill:#407BFF"></path><path d="M329.38,386.45c-2.59-1.75-.26-4.73,2.32-5.08s5.18-3.43,5.3-5.39,4.78-8,12-4.27,5,.55,10.27-.5,8.53,2,6.23,4.22c0,0,5.26-.89,7.43,2.44s0,5.4,0,5.4,9.88-.2,9,3.94S329.38,386.45,329.38,386.45Z" style="fill:#407BFF"></path><path d="M99.18,381.27s7.95-15.51,5.95-17-5.94,13-5.95,11.83.22-20.85-3.45-20.07,0,18.95,0,18.95-4.94-9.29-6.88-8.58,5.71,11.74,5.71,11.74-4.56-2.77-5.71-2.55,5.71,5.71,5.71,5.71Z" style="fill:#407BFF"></path><path d="M407.4,383.16s-7.95-15.51-5.95-17,5.95,13,5.95,11.83-.22-20.85,3.45-20.07,0,18.95,0,18.95,4.95-9.28,6.88-8.58S412,380,412,380s4.57-2.77,5.71-2.55-5.71,5.71-5.71,5.71Z" style="fill:#407BFF"></path><path d="M57.88,380H432.45a0,0,0,0,1,0,0v17.12a1.89,1.89,0,0,1-1.89,1.89H59.77a1.89,1.89,0,0,1-1.89-1.89V380A0,0,0,0,1,57.88,380Z" transform="translate(490.33 779.08) rotate(180)" style="fill:#263238"></path><path d="M57.88,380H432.45a0,0,0,0,1,0,0v17.12a1.89,1.89,0,0,1-1.89,1.89H59.77a1.89,1.89,0,0,1-1.89-1.89V380A0,0,0,0,1,57.88,380Z" transform="translate(490.33 779.08) rotate(180)" style="fill:#fff;opacity:0.7000000000000001"></path><rect x="59.73" y="383.84" width="24.53" height="12.88" transform="translate(143.98 780.56) rotate(180)" style="fill:#fff;opacity:0.2"></rect><rect x="85.57" y="382.62" width="24.53" height="12.88" transform="translate(195.67 778.11) rotate(180)" style="fill:#fff;opacity:0.2"></rect><rect x="111.15" y="387.3" width="15.97" height="8.19" transform="translate(238.26 782.8) rotate(180)" style="fill:#fff;opacity:0.2"></rect><rect x="410.45" y="388.36" width="15.97" height="8.19" transform="translate(836.87 784.91) rotate(180)" style="fill:#fff;opacity:0.2"></rect><rect x="128.39" y="383.21" width="16.79" height="11.21" transform="translate(273.57 777.63) rotate(180)" style="fill:#fff;opacity:0.2"></rect><rect x="146.41" y="381.7" width="11.42" height="11.21" transform="translate(304.25 774.61) rotate(180)" style="fill:#fff;opacity:0.2"></rect><rect x="397.18" y="383.84" width="11.42" height="11.21" transform="translate(805.78 778.89) rotate(180)" style="fill:#fff;opacity:0.2"></rect><rect x="194.54" y="383.84" width="11.42" height="11.21" transform="translate(400.5 778.89) rotate(180)" style="fill:#fff;opacity:0.2"></rect><rect x="182.55" y="381.7" width="11.42" height="7.75" transform="translate(376.52 771.14) rotate(180)" style="fill:#fff;opacity:0.2"></rect><rect x="159.01" y="384.67" width="18.81" height="11.21" transform="translate(336.82 780.56) rotate(180)" style="fill:#fff;opacity:0.2"></rect><rect x="207.26" y="383.21" width="18.81" height="11.21" transform="translate(433.33 777.63) rotate(180)" style="fill:#fff;opacity:0.2"></rect><rect x="112.26" y="382.62" width="12.11" height="3.61" transform="translate(236.62 768.84) rotate(180)" style="fill:#fff;opacity:0.2"></rect><rect x="414.31" y="382.87" width="12.11" height="3.61" transform="translate(840.73 769.34) rotate(180)" style="fill:#fff;opacity:0.2"></rect><rect x="180.02" y="391.11" width="12.11" height="3.61" transform="translate(372.15 785.82) rotate(180)" style="fill:#fff;opacity:0.2"></rect><rect x="227.73" y="383.84" width="24.53" height="12.88" transform="translate(479.98 780.56) rotate(180)" style="fill:#fff;opacity:0.2"></rect><rect x="253.57" y="382.62" width="24.53" height="12.88" transform="translate(531.67 778.11) rotate(180)" style="fill:#fff;opacity:0.2"></rect><rect x="279.15" y="387.3" width="15.97" height="8.19" transform="translate(574.26 782.8) rotate(180)" style="fill:#fff;opacity:0.2"></rect><rect x="296.39" y="383.21" width="16.79" height="11.21" transform="translate(609.57 777.63) rotate(180)" style="fill:#fff;opacity:0.2"></rect><rect x="314.41" y="381.7" width="11.42" height="11.21" transform="translate(640.25 774.61) rotate(180)" style="fill:#fff;opacity:0.2"></rect><rect x="362.54" y="383.84" width="11.42" height="11.21" transform="translate(736.5 778.89) rotate(180)" style="fill:#fff;opacity:0.2"></rect><rect x="350.55" y="381.7" width="11.42" height="7.75" transform="translate(712.52 771.14) rotate(180)" style="fill:#fff;opacity:0.2"></rect><rect x="327.01" y="384.67" width="18.81" height="11.21" transform="translate(672.82 780.56) rotate(180)" style="fill:#fff;opacity:0.2"></rect><rect x="375.26" y="383.21" width="18.81" height="11.21" transform="translate(769.33 777.63) rotate(180)" style="fill:#fff;opacity:0.2"></rect><rect x="280.26" y="382.62" width="12.11" height="3.61" transform="translate(572.62 768.84) rotate(180)" style="fill:#fff;opacity:0.2"></rect><rect x="348.02" y="391.11" width="12.11" height="3.61" transform="translate(708.15 785.82) rotate(180)" style="fill:#fff;opacity:0.2"></rect></g><g id="freepik--Birds--inject-1"><g id="freepik--freepik--Birds--inject-61--inject-1"><path d="M111.79,89.36a12.75,12.75,0,0,1-2.09-.68c-1.26-.49-2.87-1.32-4.56-2.13a14,14,0,0,0-4.46-1.34c-1.19-.13-2,0-2.11-.31s.59-.89,2-1.16a9.19,9.19,0,0,1,5.43.93,16.92,16.92,0,0,1,4.23,3.14C111.21,88.74,111.79,89.36,111.79,89.36Z" style="fill:#407BFF"></path><path d="M119.13,83.45l-1.51.59c-.9.37-2,.89-3.3,1.44-2.53,1.12-4.69,2.28-5,1.77-.16-.23.17-.8.9-1.5a11.31,11.31,0,0,1,3.32-2.18,7.62,7.62,0,0,1,4-.56,6.27,6.27,0,0,1,1.21.29Z" style="fill:#407BFF"></path><path d="M98.17,93.77l-.41-.25c-.26-.17-.65-.39-1.12-.64a23.8,23.8,0,0,0-3.7-1.61C90,90.21,87.37,90.45,87.29,90c0-.2.6-.54,1.74-.7a10.06,10.06,0,0,1,4.42.49,8.81,8.81,0,0,1,3.68,2.48,7,7,0,0,1,.8,1.08Z" style="fill:#407BFF"></path><path d="M101.06,87.69,100,88.3l-2.35,1.31c-1.77,1-3.14,2.11-3.48,1.81-.15-.15,0-.62.45-1.23a7.29,7.29,0,0,1,2.28-2,5.94,5.94,0,0,1,2.92-.7A5.18,5.18,0,0,1,101.06,87.69Z" style="fill:#407BFF"></path><path d="M95.73,84.23s-1-.35-2.52-1-3.57-1.55-5.82-2.29a15.93,15.93,0,0,0-5.89-.82c-1.54.09-2.52.39-2.66.11s.67-1,2.39-1.55A11.8,11.8,0,0,1,88,79a17.28,17.28,0,0,1,5.72,3.39A25,25,0,0,1,95.73,84.23Z" style="fill:#407BFF"></path><path d="M102.49,75.64l-.56.16c-.37.09-.88.25-1.49.44A42.5,42.5,0,0,0,95.94,78c-3.42,1.53-5.62,3.8-6.09,3.44-.22-.17.06-1,.93-2.08a12.13,12.13,0,0,1,4.29-3.25,10.87,10.87,0,0,1,5.28-.92,8.63,8.63,0,0,1,1.6.27Z" style="fill:#407BFF"></path></g></g><g id="freepik--Streetlight--inject-1"><polygon points="404.89 121.05 401.03 158.05 381.75 158.05 377.9 121.05 404.89 121.05" style="fill:#263238"></polygon><polygon points="404.89 121.05 401.03 158.05 381.75 158.05 377.9 121.05 404.89 121.05" style="fill:#fff;opacity:0.30000000000000004"></polygon><rect x="387.8" y="150.09" width="7.18" height="266.85" style="fill:#263238"></rect><rect x="387.8" y="150.09" width="7.18" height="266.85" style="fill:#fff;opacity:0.30000000000000004"></rect><polygon points="399 155.79 383.78 155.79 380.4 123.3 402.38 123.3 399 155.79" style="fill:#407BFF"></polygon><polygon points="399 155.79 383.78 155.79 380.4 123.3 402.38 123.3 399 155.79" style="fill:#fff;isolation:isolate;opacity:0.4"></polygon><polygon points="389.39 156.3 388.35 156.3 387.22 122.17 388.26 122.17 389.39 156.3" style="fill:#263238"></polygon><polygon points="389.39 156.3 388.35 156.3 387.22 122.17 388.26 122.17 389.39 156.3" style="fill:#fff;opacity:0.30000000000000004"></polygon><polygon points="404.89 121.05 401.03 158.05 388.91 158.05 387.46 121.05 404.89 121.05" style="fill:#fff;opacity:0.2"></polygon><path d="M391.39,109.15s-11.44,11.29-20.2,11.29l2.72,1.78h35l2.72-1.78C402.83,120.44,391.39,109.15,391.39,109.15Z" style="fill:#263238"></path><path d="M411.59,120.44l-2.72,1.78h-35l-2.72-1.78c8.77,0,20.2-11.29,20.2-11.29S402.82,120.44,411.59,120.44Z" style="fill:#fff;opacity:0.4"></path><path d="M411.59,120.44l-2.72,1.78H386.16c-.68-1.11-1.17-1.93-1.17-1.93,6.1-2.82,6.4-11.14,6.4-11.14S402.82,120.44,411.59,120.44Z" style="fill:#fff;opacity:0.2"></path><path d="M384.92,412h12.94a2.47,2.47,0,0,1,2.47,2.47v2.46a0,0,0,0,1,0,0H382.45a0,0,0,0,1,0,0v-2.46A2.47,2.47,0,0,1,384.92,412Z" style="fill:#263238"></path><path d="M384.92,412h12.94a2.47,2.47,0,0,1,2.47,2.47v2.46a0,0,0,0,1,0,0H382.45a0,0,0,0,1,0,0v-2.46A2.47,2.47,0,0,1,384.92,412Z" style="fill:#fff;opacity:0.5"></path></g><g id="freepik--Character--inject-1"><polygon points="134.02 355.98 122.46 416.95 129.81 416.95 141.37 355.98 134.02 355.98" style="fill:#263238"></polygon><polygon points="295.52 355.98 283.96 416.95 291.31 416.95 302.87 355.98 295.52 355.98" style="fill:#263238"></polygon><polygon points="134.02 355.98 122.46 416.95 129.81 416.95 141.37 355.98 134.02 355.98" style="fill:#fff;opacity:0.30000000000000004"></polygon><polygon points="295.52 355.98 283.96 416.95 291.31 416.95 302.87 355.98 295.52 355.98" style="fill:#fff;opacity:0.30000000000000004"></polygon><rect x="128.95" y="384.58" width="229.32" height="7.44" style="fill:#263238"></rect><rect x="128.95" y="384.58" width="229.32" height="7.44" style="fill:#fff;opacity:0.5"></rect><polygon points="186 355.98 197.56 416.95 204.91 416.95 193.35 355.98 186 355.98" style="fill:#263238"></polygon><polygon points="347.49 355.98 359.05 416.95 366.4 416.95 354.84 355.98 347.49 355.98" style="fill:#263238"></polygon><polygon points="186 355.98 197.56 416.95 204.91 416.95 193.35 355.98 186 355.98" style="fill:#fff;opacity:0.30000000000000004"></polygon><polygon points="347.49 355.98 359.05 416.95 366.4 416.95 354.84 355.98 347.49 355.98" style="fill:#fff;opacity:0.30000000000000004"></polygon><polygon points="292.43 355.6 285.12 355.6 272.88 287.57 280.19 287.57 292.43 355.6" style="fill:#263238"></polygon><polygon points="292.43 355.6 285.12 355.6 272.88 287.57 280.19 287.57 292.43 355.6" style="fill:#fff;opacity:0.30000000000000004"></polygon><polygon points="147.26 355.6 139.95 355.6 127.71 287.57 135.02 287.57 147.26 355.6" style="fill:#263238"></polygon><polygon points="219.84 355.6 212.53 355.6 200.29 287.57 207.61 287.57 219.84 355.6" style="fill:#263238"></polygon><polygon points="147.26 355.6 139.95 355.6 127.71 287.57 135.02 287.57 147.26 355.6" style="fill:#fff;opacity:0.30000000000000004"></polygon><polygon points="219.84 355.6 212.53 355.6 200.29 287.57 207.61 287.57 219.84 355.6" style="fill:#fff;opacity:0.30000000000000004"></polygon><polygon points="305.06 292.21 113.06 292.21 110.77 279.48 302.77 279.48 305.06 292.21" style="fill:#263238"></polygon><polygon points="309.2 315.25 117.2 315.25 114.91 302.51 306.91 302.51 309.2 315.25" style="fill:#263238"></polygon><polygon points="313.34 338.28 121.35 338.28 119.06 325.55 311.05 325.55 313.34 338.28" style="fill:#263238"></polygon><rect x="123.25" y="353.6" width="244.69" height="8.81" style="fill:#263238"></rect><polygon points="305.06 292.21 113.06 292.21 110.77 279.48 302.77 279.48 305.06 292.21" style="fill:#fff;opacity:0.5"></polygon><polygon points="309.2 315.25 117.2 315.25 114.91 302.51 306.91 302.51 309.2 315.25" style="fill:#fff;opacity:0.5"></polygon><polygon points="313.34 338.28 121.35 338.28 119.06 325.55 311.05 325.55 313.34 338.28" style="fill:#fff;opacity:0.5"></polygon><rect x="123.25" y="353.6" width="244.69" height="8.81" style="fill:#fff;opacity:0.5"></rect><rect x="183.33" y="353.6" width="184.61" height="8.81" style="fill:#fff;opacity:0.2"></rect><polygon points="300.49 353.48 303.06 317.15 327.24 317.15 332.12 353.17 300.49 353.48" style="fill:#263238"></polygon><polygon points="309.39 317.15 309.39 351.97 305.23 347.02 300.49 353.48 303.06 317.15 309.39 317.15" style="opacity:0.30000000000000004"></polygon><path d="M321,327.05h-.3c-5.49-.31-6.58-7.94-6.62-8.27l1-.13c0,.07,1,7.14,5.69,7.41a2.41,2.41,0,0,0,2.13-.79c1.55-1.88.43-6.38.42-6.43l1-.25c.05.21,1.26,5-.62,7.31A3.27,3.27,0,0,1,321,327.05Z" style="fill:#fff"></path><path d="M315.27,318.71a.66.66,0,0,1-.67.66.65.65,0,0,1-.66-.66.66.66,0,0,1,.66-.67A.67.67,0,0,1,315.27,318.71Z" style="fill:#fff"></path><circle cx="323.83" cy="318.71" r="0.67" style="fill:#fff"></circle><rect x="324.11" y="337.63" width="19.58" height="4.62" transform="translate(667.81 679.87) rotate(180)" style="fill:#407BFF"></rect><rect x="324.11" y="337.63" width="19.58" height="4.62" transform="translate(667.81 679.87) rotate(180)" style="fill:#fff;isolation:isolate;opacity:0.7000000000000001"></rect><path d="M336.12,337.2h15.34a2.74,2.74,0,0,1,0,5.47H336.12v-1h2.33a1.74,1.74,0,1,0,0-3.47h-2.33Z" style="fill:#407BFF"></path><g style="isolation:isolate;opacity:0.4"><path d="M336.12,337.2h15.34a2.74,2.74,0,0,1,0,5.47H336.12v-1h2.33a1.74,1.74,0,1,0,0-3.47h-2.33Z" style="fill:#fff"></path></g><path d="M323.12,337.2h15.33a2.74,2.74,0,1,1,0,5.47H323.12v-1h15.33a1.74,1.74,0,1,0,0-3.47H323.12Z" style="fill:#407BFF"></path><g style="isolation:isolate;opacity:0.2"><path d="M323.12,337.2h15.33a2.74,2.74,0,1,1,0,5.47H323.12v-1h15.33a1.74,1.74,0,1,0,0-3.47H323.12Z" style="fill:#fff"></path></g><rect x="320.09" y="343.09" width="19.58" height="4.62" transform="translate(659.77 690.8) rotate(180)" style="fill:#407BFF"></rect><rect x="320.09" y="343.09" width="19.58" height="4.62" transform="translate(659.77 690.8) rotate(180)" style="fill:#fff;isolation:isolate;opacity:0.7000000000000001"></rect><path d="M332.1,342.67h15.34a2.73,2.73,0,1,1,0,5.46H332.1v-1h2.33a1.73,1.73,0,1,0,0-3.46H332.1Z" style="fill:#263238"></path><g style="opacity:0.2"><path d="M332.1,342.67h15.34a2.73,2.73,0,1,1,0,5.46H332.1v-1h2.33a1.73,1.73,0,1,0,0-3.46H332.1Z" style="fill:#fff"></path></g><path d="M319.09,342.67h15.34a2.73,2.73,0,1,1,0,5.46H319.09v-1h15.34a1.73,1.73,0,1,0,0-3.46H319.09Z" style="fill:#263238"></path><g style="isolation:isolate;opacity:0.4"><path d="M319.09,342.67h15.34a2.73,2.73,0,1,1,0,5.46H319.09v-1h15.34a1.73,1.73,0,1,0,0-3.46H319.09Z" style="fill:#fff"></path></g><rect x="332.12" y="348.56" width="19.58" height="4.62" style="fill:#407BFF"></rect><rect x="332.12" y="348.56" width="19.58" height="4.62" style="fill:#fff;isolation:isolate;opacity:0.7000000000000001"></rect><path d="M352.7,348.13H337.37a2.74,2.74,0,1,0,0,5.47H352.7v-1H337.37a1.74,1.74,0,1,1,0-3.47H352.7Z" style="fill:#407BFF"></path><path d="M339.69,348.13H324.36a2.74,2.74,0,1,0,0,5.47h15.33v-1h-2.33a1.74,1.74,0,0,1,0-3.47h2.33Z" style="fill:#407BFF"></path><g style="isolation:isolate;opacity:0.4"><path d="M352.7,348.13H337.37a2.74,2.74,0,1,0,0,5.47H352.7v-1H337.37a1.74,1.74,0,1,1,0-3.47H352.7Z" style="fill:#fff"></path></g><path d="M220.11,281.37a46.47,46.47,0,0,0,10.42-4.57,11.93,11.93,0,0,0,2.54-2.13,6.13,6.13,0,0,0,.5-.67c-3.57-12.46-7.18-17.92-14.75-18.49C213.06,262.93,220.11,281.37,220.11,281.37Z" style="fill:#263238"></path><path d="M230.53,276.8a11.93,11.93,0,0,0,2.54-2.13,19.44,19.44,0,0,0-2.31-3.67A7.65,7.65,0,0,0,230.53,276.8Z" style="opacity:0.2"></path><polygon points="352.82 412.24 358.74 405.67 343.18 392.06 337.26 398.63 352.82 412.24" style="fill:#ffc3bd"></polygon><polygon points="337.26 398.63 343.18 392.07 351.2 399.08 345.28 405.65 337.26 398.63" style="opacity:0.2"></polygon><path d="M355.78,402.75l-8.63,5a.71.71,0,0,0-.31.88l3,7.4a1.42,1.42,0,0,0,2,.65c3-1.8,4.33-2.82,8.12-5,2.34-1.35,7.7-4,10.92-5.88s1.55-5.17,0-4.67c-6.77,2.2-10.57,1.89-13.59,1.36A2.4,2.4,0,0,0,355.78,402.75Z" style="fill:#263238"></path><path d="M360.13,400.2a.68.68,0,0,0-.63-.29c-1.1.11-2.55,3-2.72,3.28a.17.17,0,0,0,0,.19.16.16,0,0,0,.18.06c1.13-.34,3.06-1.07,3.4-2.13a1.41,1.41,0,0,0,.05-.35A1.3,1.3,0,0,0,360.13,400.2Zm-.59.06a.34.34,0,0,1,.32.15.84.84,0,0,1,.19.79c-.19.6-1.21,1.26-2.76,1.78C357.82,402,358.86,400.33,359.54,400.26Z" style="fill:#407BFF"></path><path d="M357.34,399.32a.71.71,0,0,0-.86-.14,1.07,1.07,0,0,0-.61.67c-.4,1.21.87,3.42.92,3.51a.17.17,0,0,0,.3,0,6.34,6.34,0,0,0,.59-2.78A2,2,0,0,0,357.34,399.32Zm-1.14.64a.71.71,0,0,1,.42-.46c.26-.11.39,0,.46.06.45.51.24,2.36-.15,3.33C356.61,402.26,355.92,400.78,356.2,400Z" style="fill:#407BFF"></path><path d="M226.67,265.93c-1.71,9.64,2.44,18.91,10.08,24.73a4.24,4.24,0,0,0,2.13.79s.05,0,0,.09a2.48,2.48,0,1,1,3.58,3.42l-.45.53a8.06,8.06,0,0,1-6.95,2.28c-4.65-.67-7.75-3.23-10.7-6.42A31.42,31.42,0,0,1,217,263.46c1.83-6.47,11.1-4.09,9.69,2.47Z" style="fill:#e9b376"></path><path d="M230.28,268.06a109.58,109.58,0,0,1,2.4,14.78c.86,7.24,1.49,14.41,2.32,26.38L198.75,315c-.89-10.33-3.92-21.78-14.07-43.73a8.55,8.55,0,0,1,5.49-12.13c1.41-.37,2.92-.74,4.47-1.06a116.8,116.8,0,0,1,16.46-2.61c1.82-.12,3.71-.19,5.52-.22C223.16,255.09,229.07,261.7,230.28,268.06Z" style="fill:#263238"></path><path d="M247.19,289.1l-.38,2.36a2.79,2.79,0,0,1-1.51,2.06l-3.76,1.87a5.21,5.21,0,0,1-4.77-.07l-.91-.49c.35-4,3.65-8,3.65-8l.82-1.26a2.32,2.32,0,0,1,3.21-.75l2.49,1.58A2.67,2.67,0,0,1,247.19,289.1Z" style="fill:#ebb376"></path><path d="M200.61,350.78c13.32,10.38,45.21,6.83,74.22,2.8a72.06,72.06,0,0,0,11.93,14.32c12.86,12.27,30.14,22.58,41.53,28.67,7.11,3.82,11.93,6,11.93,6l8.3-8.9s-15.54-14-32.73-29.26c-11.68-10.4-24.13-21.4-32.94-29a5.23,5.23,0,0,0-1.64-.93.06.06,0,0,0,0,0,12.89,12.89,0,0,0-2.73-.59l-1.95-.27-1.59-.21c-9.81-1.37-31.26-4.07-31.26-4.07l-9-22.41-36.79,1.2S189.13,341.84,200.61,350.78Z" style="fill:#407BFF"></path><polygon points="351.89 394.61 341.39 405.82 336.36 402.27 347.77 390.38 351.89 394.61" style="fill:#263238"></polygon><path d="M271.27,333.28a365.32,365.32,0,0,0,15.49,34.62c12.86,12.27,30.14,22.58,41.53,28.67a118.72,118.72,0,0,0-12.5-32.17c-1.6-2.81-3.38-5.67-5.35-8.52-9.71-14-21.22-19.38-29.23-21.41a.06.06,0,0,0,0,0c-1-.24-1.87-.44-2.73-.59-1.34-.24-2.53-.39-3.54-.48A23.14,23.14,0,0,0,271.27,333.28Z" style="opacity:0.2"></path><polygon points="318.91 404.84 327.25 401.93 320.15 382.51 311.81 385.42 318.91 404.84" style="fill:#ffc3bd"></polygon><polygon points="311.81 385.43 320.16 382.52 323.81 392.53 315.46 395.44 311.81 385.43" style="opacity:0.2"></polygon><path d="M326.06,398l-10,.25a.69.69,0,0,0-.7.62l-.94,7.92a1.44,1.44,0,0,0,1.46,1.55c3.48-.15,5.15-.4,9.54-.5,2.7-.07,8.68.18,12.41.09s3.83-3.79,2.27-4.08c-7-1.33-10.18-3.43-12.57-5.34A2.31,2.31,0,0,0,326.06,398Z" style="fill:#263238"></path><path d="M331.11,397.8a.68.68,0,0,0-.41-.55c-1-.44-3.67,1.36-4,1.57a.17.17,0,0,0-.07.17.17.17,0,0,0,.13.14c1.15.24,3.2.53,4-.24a1.39,1.39,0,0,0,.21-.27A1.3,1.3,0,0,0,331.11,397.8Zm-.55-.23a.33.33,0,0,1,.2.29.8.8,0,0,1-.21.78c-.45.44-1.66.52-3.27.23C328.21,398.27,329.93,397.3,330.56,397.57Z" style="fill:#407BFF"></path><path d="M329.08,395.69a.69.69,0,0,0-.69-.54,1,1,0,0,0-.85.3c-.94.86-.89,3.41-.88,3.51a.16.16,0,0,0,.09.15.17.17,0,0,0,.17,0,6.44,6.44,0,0,0,1.86-2.15A2,2,0,0,0,329.08,395.69Zm-1.31,0a.72.72,0,0,1,.59-.2c.29,0,.36.16.38.27.15.67-.93,2.19-1.73,2.85C327,397.91,327.14,396.29,327.77,395.7Z" style="fill:#407BFF"></path><path d="M200.61,350.78c13.32,10.38,45.21,6.83,74.22,2.8a72.06,72.06,0,0,0,11.93,14.32c12.86,12.27,30.14,22.58,41.53,28.67,7.11,3.82,11.93,6,11.93,6l8.3-8.9s-15.54-14-32.73-29.26c-11.68-10.4-24.13-21.4-32.94-29a5.23,5.23,0,0,0-1.64-.93.06.06,0,0,0,0,0,12.89,12.89,0,0,0-2.73-.59l-1.95-.27-1.59-.21c-9.81-1.37-31.26-4.07-31.26-4.07l-9-22.41-36.79,1.2S189.13,341.84,200.61,350.78Z" style="opacity:0.30000000000000004"></path><path d="M201.19,316.61s55.3-5.54,75.77-3.19c20,2.29,47.13,73.62,47.13,73.62l-11.92,4.13c-22.68-25.62-35.54-44.15-40.9-57.89C222.71,351.37,205,349.92,205,349.92Z" style="fill:#407BFF"></path><path d="M201.19,316.61s55.3-5.54,75.77-3.19c20,2.29,47.13,73.62,47.13,73.62l-11.92,4.13c-22.68-25.62-35.54-44.15-40.9-57.89C222.71,351.37,205,349.92,205,349.92Z" style="opacity:0.30000000000000004"></path><polygon points="326.57 388.94 311.98 393.71 309.27 388.18 324.99 383.24 326.57 388.94" style="fill:#263238"></polygon><path d="M271.27,333.28s-1.52-4.52-4.65-5.26-29.38-.44-29.38-.44Z" style="opacity:0.2"></path><path d="M198.41,278.32s4,8.65,0,11.61S191.24,279.22,198.41,278.32Z" style="opacity:0.2"></path><path d="M216.84,261.14s9.44,10.68,19,50L240,306.9s1.77-5.94-2.78-6.86c0,0,1.84-7.37-2.24-9.69,0,0-.85-9.59-4.05-12.67a12.07,12.07,0,0,0-.87-3.78,4.75,4.75,0,0,0-2.93-2.9s-3.28-13.62-9-16S216.84,261.14,216.84,261.14Z" style="fill:#407BFF"></path><path d="M237.24,300,235,303.21S237.76,303.21,237.24,300Z" style="opacity:0.2"></path><path d="M235,290.35,232.24,294A2.87,2.87,0,0,0,235,290.35Z" style="opacity:0.2"></path><path d="M231,277.68l-2.57,2.79S231.3,279.76,231,277.68Z" style="opacity:0.2"></path><path d="M225.78,268.44l-1.7,2.56A2.62,2.62,0,0,0,225.78,268.44Z" style="opacity:0.2"></path><path d="M258.25,267.6l-2.87-1.42-10,3.36-14-2.79-2.54,10.62s0,11.66.67,11.75,15.78,0,15.78,0l7.38-5.32Z" style="fill:#e0e0e0"></path><polygon points="227.78 267.75 223.07 292.15 241.95 293.19 254.69 288.88 260.01 265.91 245.43 270.59 227.78 267.75" style="fill:#407BFF"></polygon><polygon points="227.78 267.75 223.07 292.15 241.95 293.19 254.69 288.88 260.01 265.91 245.43 270.59 227.78 267.75" style="fill:#fff;opacity:0.5"></polygon><polygon points="245.43 270.59 241.95 293.19 223.07 292.16 227.78 267.75 245.43 270.59" style="fill:#fff;isolation:isolate;opacity:0.2"></polygon><path d="M216.84,261.14s6-6.62,1.14-10.1-29.87-2.56-31,2.25S216.84,261.14,216.84,261.14Z" style="fill:#407BFF"></path><path d="M216.84,261.14s6-6.62,1.14-10.1-29.87-2.56-31,2.25S216.84,261.14,216.84,261.14Z" style="opacity:0.2"></path><path d="M194.64,258c-6,1.34,19.6,6.65,19.6,6.65S227.38,250.72,194.64,258Z" style="fill:#ebb376"></path><path d="M197,239.36c1.46,5.36,3.25,15.18-.23,18.77,0,0,2,2.26,15.87,5.89,3.12-4.48.79-5.91.79-5.91-6.08-1.42-6.26-5.86-5.54-10Z" style="fill:#ebb376"></path><path d="M201.41,242.92l6.45,5.16a15.79,15.79,0,0,0-.29,3c-2.31-.33-5.64-2.83-6.06-5.23A8.08,8.08,0,0,1,201.41,242.92Z" style="opacity:0.2"></path><path d="M196.87,217.76s-2.67-7.35-8.67-5.9-7.42,7-5.43,13.63-.69,8-.69,8,7,1.14,7.62-6.88,4.74-5.51,4.74-5.51Z" style="fill:#263238"></path><path d="M197.23,226.22c-.84,8.77-1.38,12.46,2.22,17.82,5.41,8.06,16.14,7.72,19.52-.49,3.05-7.39,3.91-20.49-3.87-25.72A11.29,11.29,0,0,0,197.23,226.22Z" style="fill:#ebb376"></path><path d="M207.45,230.68c-.1.73.19,1.4.65,1.5s.92-.42,1-1.15-.19-1.41-.65-1.51S207.56,229.94,207.45,230.68Z" style="fill:#263238"></path><path d="M216.48,232.29c-.11.73.18,1.4.64,1.5s.92-.42,1-1.15-.19-1.41-.65-1.51S216.58,231.55,216.48,232.29Z" style="fill:#263238"></path><path d="M217.28,231.13l1.77-.15S218,232.17,217.28,231.13Z" style="fill:#263238"></path><path d="M213.51,233.32a21.92,21.92,0,0,0,1.86,5.21,2.94,2.94,0,0,1-2.58,0Z" style="fill:#d58745"></path><path d="M208.37,240.35a7.19,7.19,0,0,0,1.16.35.19.19,0,0,0,.24-.17.23.23,0,0,0-.18-.26,6.18,6.18,0,0,1-4.23-3.22.22.22,0,0,0-.28-.13.22.22,0,0,0-.1.29A6.55,6.55,0,0,0,208.37,240.35Z" style="fill:#263238"></path><path d="M206.77,225.8a.35.35,0,0,0,.33,0,3.15,3.15,0,0,1,3-.25.4.4,0,0,0,.55-.2.48.48,0,0,0-.22-.59,4,4,0,0,0-3.78.28.44.44,0,0,0-.12.6A.44.44,0,0,0,206.77,225.8Z" style="fill:#263238"></path><path d="M220.82,228.23a.37.37,0,0,0,.31,0,.43.43,0,0,0,.22-.57,4.53,4.53,0,0,0-2.88-2.79.39.39,0,0,0-.48.33.47.47,0,0,0,.34.53,3.64,3.64,0,0,1,2.26,2.23A.41.41,0,0,0,220.82,228.23Z" style="fill:#263238"></path><path d="M208.26,229.52l1.77-.15S209,230.56,208.26,229.52Z" style="fill:#263238"></path><path d="M206.34,219.49a12.81,12.81,0,0,1-6.79,8.76l-1.11,6.63-1.36,4.05s-6.86-1.46-5.68-13c.8-7.76,4.44-10,7-10.68a9.88,9.88,0,0,0,3.89-1.86c1.65-1.35,5-2.67,11.16-.35,9.09,3.42,6.47,11.06,6.47,11.06a12.29,12.29,0,0,0-4.35-4.19C213.07,218.63,208.69,218,206.34,219.49Z" style="fill:#263238"></path><path d="M193.29,232.76a7.08,7.08,0,0,0,3.58,4.05c2.17,1,3.57-1.07,3.22-3.5-.31-2.19-1.82-5.36-4.13-5.33S192.51,230.52,193.29,232.76Z" style="fill:#ebb376"></path><path d="M207.46,316l-19.22-4.94s-3.51-4.85,1.29-8.57c0,0-4.63-6.1,0-12.16l1.73-15.7s6.63-3.64,5.35-10.67h0a13.63,13.63,0,0,0-1.75-4.48l8.79,2.66,1.83.55C210,269.52,207.46,316,207.46,316Z" style="fill:#407BFF"></path><path d="M204.59,262.71a66.56,66.56,0,0,1-8,1.27,13.63,13.63,0,0,0-1.75-4.48l8.79,2.66C204,262.33,204.27,262.51,204.59,262.71Z" style="opacity:0.2"></path><path d="M189.53,302.51s4.87,4.13,13.9,3.73C203.43,306.24,193.24,301.56,189.53,302.51Z" style="opacity:0.2"></path><path d="M189.53,290.35s11.5,4.59,17.13,3.14C206.66,293.49,195.08,288.5,189.53,290.35Z" style="opacity:0.2"></path><path d="M191.26,282.42s12,3.09,15.4,1.2C206.66,283.62,195.36,280.24,191.26,282.42Z" style="opacity:0.2"></path><path d="M206.66,273.12s-9.41-1.89-13.61.78C193.05,273.9,203.89,275.21,206.66,273.12Z" style="opacity:0.2"></path><path d="M191.26,252.5c4,1.83,14.23,10.2,14.23,10.2s-18.4-1.84-19.49-4.34S184.47,249.38,191.26,252.5Z" style="fill:#407BFF"></path><path d="M235.12,284.29l-2.67-.59a3.18,3.18,0,0,0-2.83.74L226,287.66a5.92,5.92,0,0,0-1.92,5.09l.13,1.19c4.37,1.29,10-.54,10-.54l1.67-.34a2.64,2.64,0,0,0,2.15-3.09l-.63-3.33A3.06,3.06,0,0,0,235.12,284.29Z" style="fill:#ebb376"></path><path d="M194.4,275.33a109.53,109.53,0,0,0,7.28,19.46,59.75,59.75,0,0,0,3.39,5.79l-.65-.7c-.28-.23-.58-.25-.52-.22a7.66,7.66,0,0,0,3.43-.6,46.56,46.56,0,0,0,6.47-3c4.42-2.36,8.82-5.15,13-7.9A2.49,2.49,0,0,1,230,292c-6.07,6-22.71,21.75-31.45,14.7-7-8.32-11.16-18.61-13.85-29.07-1.3-6.45,8-8.66,9.73-2.32Z" style="fill:#e9b376"></path><path d="M187.37,260.39c-6.19,4.38-6.48,10.91-3.14,23.44,4.47,2.24,15.33-.59,15.33-.59S196.13,263.79,187.37,260.39Z" style="fill:#263238"></path><path d="M193.42,341h0c-.81-2.05-8.55-4.49-13.1-5.77,3.47-1.67,4.22-5.73,4.22-5.73-4.23-.46-7.5,4.07-7.5,4.07-.6-4.55-6-5.7-6-5.7a8.4,8.4,0,0,0,3.32,7.3c-4.59,1.47-13.57,4.5-13.75,5.83h0a2,2,0,0,0-.39,1.19v9.33a2,2,0,0,0,2,2h29.49a2,2,0,0,0,2-2v-9.33A2,2,0,0,0,193.42,341Z" style="fill:#407BFF"></path><path d="M193.81,342.23v9.33a2,2,0,0,1-2,2H162.28a2,2,0,0,1-2-2v-9.33a2,2,0,0,1,.39-1.19c.17-1.33,9.16-4.36,13.75-5.82A6.81,6.81,0,0,1,173,334a8.61,8.61,0,0,1-2-6.06s5.38,1.14,6,5.69c0,0,3.27-4.53,7.5-4.07a8.76,8.76,0,0,1-3.69,5.44,4.49,4.49,0,0,1-.53.29l.07,0,.2.06.26.08c4.6,1.31,11.79,3.65,12.57,5.61h0A2,2,0,0,1,193.81,342.23Z" style="fill:#fff;opacity:0.30000000000000004"></path><path d="M175.08,335.66s-12.56,4-12.46,5.09,12.46-4.5,12.46-4.5-1.58,1.49-.69,2.18,1.48-1.49,1.48-1.49-.3,3.77.69,4S178.84,338,175.08,335.66Z" style="opacity:0.2"></path><path d="M186.8,337.74c.25.59-6.08-1.73-6.38-1.73s1.73,1.23.74,1.53-2.62-1.53-2.91-1.43,1.68,2.07,1.78,3.26c0,0-2.33-3.82-5.64-4.15A6.81,6.81,0,0,1,173,334a4.66,4.66,0,0,0,2.46.89s-2.4-2.12-1.36-2.89,2,2.69,2,2.69l.92-1.06v.67s2.9-2.33,3.64-1.78-3.07,2.38-3.07,2.38a10.76,10.76,0,0,0,3.25.1,4.49,4.49,0,0,1-.53.29l.07,0,.2.06.26.08C182.36,335.9,186.59,337.25,186.8,337.74Z" style="opacity:0.2"></path><path d="M167.51,324v-3h-5.2v3a2.85,2.85,0,0,1-.93,2.1h0a2.82,2.82,0,0,0-.94,2.1v23.87A1.52,1.52,0,0,0,162,353.6h5.92a1.52,1.52,0,0,0,1.51-1.51V328.22a2.85,2.85,0,0,0-.93-2.1h0A2.82,2.82,0,0,1,167.51,324Z" style="fill:#407BFF"></path><path d="M169.38,335.72v-7.5a2.85,2.85,0,0,0-.93-2.1,2.82,2.82,0,0,1-.94-2.1v-3h-5.2v3a2.85,2.85,0,0,1-.93,2.1,2.82,2.82,0,0,0-.94,2.1v7.5Z" style="fill:#fff;isolation:isolate;opacity:0.6000000000000001"></path><path d="M160.44,345.08v7A1.52,1.52,0,0,0,162,353.6h5.92a1.52,1.52,0,0,0,1.51-1.51v-7Z" style="fill:#fff;isolation:isolate;opacity:0.6000000000000001"></path><rect x="161.84" y="320.23" width="6.15" height="2.34" rx="0.33" style="fill:#407BFF"></rect><polygon points="158.17 353.6 148.1 353.6 146.76 337.09 159.51 337.09 158.17 353.6" style="fill:#263238"></polygon><path d="M156.14,344.4a3,3,0,1,1-3-3A3,3,0,0,1,156.14,344.4Z" style="fill:#fff;isolation:isolate;opacity:0.6000000000000001"></path><polygon points="160.07 337.52 146.2 337.52 147.54 336.02 158.73 336.02 160.07 337.52" style="fill:#263238"></polygon><polygon points="160.07 337.52 146.2 337.52 147.54 336.02 158.73 336.02 160.07 337.52" style="fill:#fff;isolation:isolate;opacity:0.6000000000000001"></polygon></g><g id="freepik--trash-can--inject-1"><rect x="89.14" y="342.32" width="36.37" height="25.42" style="fill:#263238"></rect><path d="M77.45,336.56v80.38h50.19V336.56Zm44.72,23.75h-16v-9.62a4.06,4.06,0,0,1,4.06-4.06h7.85a4.06,4.06,0,0,1,4,4.06Z" style="fill:#407BFF"></path><path d="M77.45,336.56v80.38h50.19V336.56Zm44.72,23.75h-16v-9.62a4.06,4.06,0,0,1,4.06-4.06h7.85a4.06,4.06,0,0,1,4,4.06Z" style="fill:#fff;isolation:isolate;opacity:0.6000000000000001"></path><rect x="77.45" y="336.56" width="21.52" height="80.38" style="fill:#fff;isolation:isolate;opacity:0.4"></rect><rect x="76.15" y="332.32" width="52.67" height="7.77" style="fill:#407BFF"></rect><rect x="76.15" y="332.32" width="24.31" height="7.77" style="fill:#fff;isolation:isolate;opacity:0.2"></rect></g></svg>